<svg viewBox="-61 0 511 512" xmlns="http://www.w3.org/2000/svg"><path d="m39.289062 361-30 30h252.421876l-30-30zm0 0"/><path d="m.5 421h270v91h-270zm0 0"/><path d="m369.636719 2.929688c-3.253907.46875-80.128907 14.21875-135.71875 69.808593-55.589844 55.589844-67.410157 132.464844-67.882813 135.71875l-.234375 1.601563c-15.046875 19.457031-27.460937 39.15625-38.980469 60.941406h-96.320312v30h30v30h150v-30h30v-30h-79.167969c9.820313-16.890625 19.542969-32.207031 31.695313-47.441406 17.453125-3.816406 55.011718-14.179688 91.574218-38.277344l6.738282-4.453125v-30.828125h33.53125l4.496094-3.859375c46.582031-54.214844 56.867187-121.4375 57.277343-124.277344l2.914063-21.863281zm0 0"/></svg>