<?xml version="1.0" encoding="iso-8859-1"?>
<!-- Generator: Adobe Illustrator 19.0.0, SVG Export Plug-In . SVG Version: 6.00 Build 0)  -->
<svg version="1.1" id="Layer_1" xmlns="http://www.w3.org/2000/svg" xmlns:xlink="http://www.w3.org/1999/xlink" x="0px" y="0px"
	 viewBox="0 0 455 455" style="enable-background:new 0 0 455 455;" xml:space="preserve">
<g>
	<polygon points="370.5,158.498 310.5,158.498 310.5,227.498 241.5,227.498 241.5,287.498 310.5,287.498 310.5,356.498 
		370.5,356.498 370.5,287.498 439.5,287.498 439.5,227.498 370.5,227.498 	"/>
	<path d="M211.5,197.498h69v-69h120v69h34.799c12.468-20,19.701-42.674,19.701-67.53C455,60.686,398.847,4.51,329.579,4.51
		c-42.087,0-79.329,20.731-102.079,52.544C204.75,25.24,167.508,4.501,125.421,4.501C56.153,4.501,0,60.664,0,129.947
		c0,30.118,10.612,57.752,28.299,79.376L227.5,450.499l53-64.169v-68.832h-69V197.498z"/>
</g>
<g>
</g>
<g>
</g>
<g>
</g>
<g>
</g>
<g>
</g>
<g>
</g>
<g>
</g>
<g>
</g>
<g>
</g>
<g>
</g>
<g>
</g>
<g>
</g>
<g>
</g>
<g>
</g>
<g>
</g>
</svg>
