<?xml version="1.0" encoding="iso-8859-1"?>
<!-- Generator: Adobe Illustrator 16.0.0, SVG Export Plug-In . SVG Version: 6.00 Build 0)  -->
<!DOCTYPE svg PUBLIC "-//W3C//DTD SVG 1.1//EN" "http://www.w3.org/Graphics/SVG/1.1/DTD/svg11.dtd">
<svg version="1.1" id="Capa_1" xmlns="http://www.w3.org/2000/svg" xmlns:xlink="http://www.w3.org/1999/xlink" x="0px" y="0px"
	 width="557.506px" height="557.506px" viewBox="0 0 557.506 557.506" style="enable-background:new 0 0 557.506 557.506;"
	 xml:space="preserve">
<g>
	<g>
		<path d="M196.261,310.341v73.893c0,5.948,4.822,10.771,10.774,10.771c5.952,0,10.774-4.823,10.774-10.771v-67.14l-34.128-36.022
			c-7.454-7.87-10.395-18.862-7.864-29.403l8.213-34.223h-9.599l7.2-10.921c1.518,0.694,3.115,1.242,4.792,1.582
			c1.732-5.113,4.669-9.578,8.449-13.103c4.954-4.615,11.353-7.595,18.36-8.333c1.049-0.11,2.108-0.181,3.186-0.187v-35.254
			c0-5.949-4.823-10.771-10.771-10.771c-5.948,0-10.771,4.826-10.771,10.771v12.999c-1.288-0.232-2.61-0.374-3.966-0.374
			c-1.365,0-2.693,0.141-3.99,0.376v-30.673c0-5.949-4.822-10.771-10.774-10.771c-5.948,0-10.771,4.822-10.771,10.771v58.489
			l-5.217,7.916l-5.217-7.916v-58.489c0-5.949-4.823-10.771-10.771-10.771c-5.948,0-10.771,4.822-10.771,10.771v30.673
			c-1.297-0.232-2.625-0.376-3.99-0.376c-2.751,0-5.376,0.521-7.812,1.432v-50.089c0-5.949-4.823-10.771-10.774-10.771
			s-10.771,4.823-10.771,10.771v58.489l-6.613,10.034v-50.163c0-5.949-4.823-10.771-10.771-10.771
			c-5.948,0-10.771,4.822-10.771,10.771v13.369c-2.436-0.909-5.058-1.432-7.812-1.432c-12.344,0-22.351,10.006-22.351,22.35
			c0,12.344,10.006,22.351,22.351,22.351c2.751,0,5.376-0.521,7.812-1.432v6.512c0,1.31,0.266,2.595,0.725,3.807h-8.537H44.852
			l-16.741-25.398v-58.485c0-5.949-4.823-10.771-10.771-10.771S6.568,109.25,6.568,115.198v61.72c0,2.108,0.618,4.167,1.778,5.927
			l29.051,44.076v47.09c-0.138,0.691-0.214,1.404-0.214,2.136v89.728c0,5.949,4.822,10.771,10.771,10.771
			s10.774-4.822,10.774-10.771V291.98h5.355h5.355v73.893c0,5.949,4.823,10.771,10.774,10.771s10.774-4.822,10.774-10.771v-89.728
			c0-0.731-0.076-1.444-0.214-2.136v-46.867l11.955,18.137v47.09c-0.138,0.691-0.214,1.404-0.214,2.136v89.729
			c0,5.948,4.822,10.771,10.774,10.771c5.949,0,10.771-4.823,10.771-10.771v-73.893h5.355h5.355v73.893
			c0,5.948,4.822,10.771,10.771,10.771s10.771-4.823,10.771-10.771v-89.729c0-0.731-0.077-1.444-0.214-2.136v-47.09l4.067-6.172
			l4.066,6.172v47.09c-0.138,0.691-0.214,1.404-0.214,2.136v89.729c0,5.948,4.822,10.771,10.771,10.771s10.774-4.823,10.774-10.771
			v-73.893h5.355H196.261L196.261,310.341z M129.4,217.445H110.17l-6.582-9.988l6.555-9.945c3.886,6.6,11.043,11.043,19.256,11.043
			c3.314,0,6.445-0.741,9.275-2.032l7.2,10.921H129.4z"/>
		<path d="M240.977,197.839c1.107-1.771,2.295-3.485,3.595-5.107c1.212-1.512,2.482-2.971,3.847-4.342
			c2.396-2.408,5.019-4.584,7.831-6.505c3.075-2.099,6.383-3.874,9.869-5.306v-17.274c0-5.948-4.823-10.771-10.771-10.771
			c-2.653,0-5.052,0.998-6.928,2.585v-17.561c0-5.949-4.823-10.771-10.774-10.771s-10.771,4.822-10.771,10.771v54.633
			c2.472,0.835,4.771,1.967,6.897,3.326C236.506,193.262,238.923,195.4,240.977,197.839z"/>
		<polygon points="233.902,334.086 225.484,325.2 225.484,389.527 233.902,379.239 		"/>
		<path d="M537.135,112.499c-5.947,0-10.771,4.823-10.771,10.771v58.489l-16.74,25.398h-19.229h-8.537
			c0.459-1.215,0.725-2.497,0.725-3.807v-6.512c2.436,0.909,5.059,1.432,7.809,1.432c12.344,0,22.35-10.006,22.35-22.35
			c0-12.344-10.006-22.351-22.35-22.351c-2.75,0-5.377,0.521-7.809,1.432v-13.369c0-5.949-4.822-10.771-10.775-10.771
			c-5.947,0-10.77,4.822-10.77,10.771v50.166l-6.617-10.034v-58.495c0-5.949-4.822-10.771-10.77-10.771
			c-5.949,0-10.775,4.823-10.775,10.771v50.089c-2.436-0.909-5.059-1.432-7.812-1.432c-1.363,0-2.691,0.141-3.99,0.376V141.63
			c0-5.949-4.822-10.771-10.771-10.771c-5.947,0-10.77,4.822-10.77,10.771v58.489l-5.219,7.916l-0.82-1.242v2.485v36.662v2.485
			l0.82-1.242l4.066,6.172v47.09c-0.137,0.691-0.213,1.404-0.213,2.136v89.729c0,5.948,4.822,10.771,10.773,10.771
			c5.949,0,10.771-4.823,10.771-10.771v-73.893h5.355h5.355v73.893c0,5.948,4.822,10.771,10.77,10.771
			c5.949,0,10.775-4.823,10.775-10.771V302.58c0-0.731-0.076-1.444-0.215-2.136v-47.09l11.955-18.137v46.868
			c-0.137,0.691-0.213,1.404-0.213,2.136v89.728c0,5.949,4.822,10.771,10.773,10.771s10.771-4.822,10.771-10.771v-73.893h5.355
			h5.354v73.893c0,5.949,4.824,10.771,10.775,10.771s10.771-4.822,10.771-10.771v-89.728c0-0.731-0.076-1.444-0.215-2.136v-47.091
			l29.051-44.076c1.16-1.76,1.779-3.819,1.779-5.927v-61.72C547.91,117.325,543.088,112.499,537.135,112.499z M444.301,225.52
			h-19.229H408.6l7.201-10.921c2.826,1.294,5.961,2.032,9.275,2.032c8.213,0,15.373-4.443,19.256-11.043l6.555,9.945L444.301,225.52
			z"/>
		<path d="M390.252,263.305c-0.602,1.236-1.254,2.448-2.02,3.608l-42.299,64.177v66.772c0.221,1.524,0.334,3.061,0.334,4.581v0.517
			c0.389,0.043,0.771,0.12,1.172,0.12c5.949,0,10.771-4.823,10.771-10.771v-73.893h5.355h5.355v73.893
			c0,5.948,4.822,10.771,10.773,10.771s10.771-4.823,10.771-10.771V302.58c0-0.731-0.076-1.444-0.215-2.136V263.305z"/>
		<path d="M327.596,141.63c0-5.949-4.822-10.771-10.771-10.771c-5.947,0-10.773,4.822-10.773,10.771v1.411
			c-1.879-1.591-4.275-2.586-6.928-2.586c-5.949,0-10.771,4.826-10.771,10.771v21.432c6.227,0.223,12.186,1.497,17.699,3.678
			c1.309,0.517,2.586,1.099,3.844,1.713c6.832,3.348,12.873,8.057,17.699,13.844V141.63H327.596z"/>
		<path d="M95.18,94.372c6.426-8.433,6.714-20.294,1.401-29.572c-5.747-10.034-30.863-29.146-16.992-40.264
			c7.699-6.172-3.201-16.925-10.82-10.82c-9.033,7.24-9.893,18.354-6.75,28.88c4.189,14.024,31.708,28.617,19.951,44.052
			C75.984,94.5,89.283,102.107,95.18,94.372z"/>
		<path d="M494.023,28.985c9.816-0.994,6.514-15.945-3.197-14.963c-11.52,1.166-18.281,10.024-21.365,20.569
			c-4.109,14.048,11.055,41.258-7.203,47.818c-9.291,3.338-2.266,16.952,6.887,13.663c9.979-3.586,16.668-13.385,17.254-24.058
			C487.027,60.47,476.336,30.776,494.023,28.985z"/>
		<path d="M194.348,92.688c1.643,10.563,9.275,19.651,19.56,22.225c9.437,2.362,15.074-11.882,5.499-14.281
			c-18.822-4.715-6.438-33.296-11.921-46.867c-4.116-10.187-11.726-18.33-23.305-18.345c-9.761-0.012-11.563,15.193-1.695,15.205
			C200.257,50.653,192.573,81.266,194.348,92.688z"/>
		<path d="M381.332,37.851c4.498-10.025,5.105-21.154-2.904-29.517c-6.75-7.053-18.969,2.179-12.145,9.306
			c12.293,12.84-15.113,28.495-22.127,37.687c-6.484,8.5-7.754,20.297-2.488,29.501c4.83,8.442,19.01,2.647,14.111-5.924
			C346.146,62.064,375.342,51.208,381.332,37.851z"/>
		<path d="M243.213,53.885c4.097,9.875,13.666,16.895,24.266,16.958c9.728,0.061,11.83-15.113,1.958-15.177
			c-19.403-0.123-14.14-30.824-22.684-42.708c-6.414-8.923-15.735-15.031-26.986-12.301c-9.489,2.301-7.638,17.5,1.952,15.174
			C239,11.645,238.782,43.206,243.213,53.885z"/>
		<path d="M135.128,95.73c13.813,0,13.813-21.42,0-21.42S121.315,95.73,135.128,95.73z"/>
		<path d="M32.618,65.13c13.812,0,13.812-21.42,0-21.42C18.805,43.71,18.805,65.13,32.618,65.13z"/>
		<path d="M320.258,16.17c-13.812,0-13.812,21.42,0,21.42S334.07,16.17,320.258,16.17z"/>
		<path d="M300.367,92.67c13.814,0,13.814-21.42,0-21.42C286.555,71.25,286.555,92.67,300.367,92.67z"/>
		<path d="M418.178,60.541c13.812,0,13.812-21.42,0-21.42S404.365,60.541,418.178,60.541z"/>
		<path d="M540.578,62.07c-13.812,0-13.812,21.42,0,21.42S554.391,62.07,540.578,62.07z"/>
		<path d="M336.666,317.348l38.791-58.853c1.791-2.714,2.742-5.894,2.742-9.143v-23.828v-2.791v-11.579v-33.739v-45.328
			c0-0.407-0.031-0.808-0.061-1.208c-0.621-8.611-7.789-15.41-16.562-15.41c-9.18,0-16.617,7.442-16.617,16.619v17.191v32.629
			v24.749v18.865v18.844l-8.08,12.255l-17.746,26.931H279.07h-3.666h-22.506l-27.775-29.321l5.508-22.947l2.161-9
			c0.006-0.031,0.009-0.064,0.018-0.095c0.101-0.438,0.181-0.875,0.245-1.31c0.021-0.217,0.058-0.428,0.083-0.646
			c0.214-1.906,0.089-3.788-0.331-5.584c-0.397-1.705-1.049-3.332-1.943-4.816c-2.219-3.681-5.848-6.508-10.355-7.592
			c-0.107-0.024-0.211-0.034-0.318-0.058c-1.203-0.266-2.402-0.41-3.586-0.41c-0.064,0-0.125,0.016-0.189,0.016
			c-7.427,0.085-14.134,5.18-15.946,12.729l-0.701,2.922l-1.083,4.516l-7.986,33.278c-1.313,5.468,0.229,11.23,4.094,15.312
			l23.014,24.297l7.895,8.335l23.5,24.811v0.021v56.689l-2.172,2.653l-18.238,22.289l-34.798,42.537
			c-5.566,6.809-4.872,16.771,1.591,22.741l42.344,39.089c3.195,2.95,7.237,4.406,11.267,4.406c4.477,0,8.941-1.799,12.215-5.346
			c6.227-6.747,5.805-17.258-0.939-23.488l-30.839-28.468l28.015-34.234h40.079v114.009c0,9.177,7.443,16.619,16.619,16.619
			c9.178,0,16.619-7.442,16.619-16.619v-138.44c0-1.129-0.119-2.233-0.334-3.299v-72.641L336.666,317.348z"/>
		<path d="M249.171,235.116c2.543,10.643,9.489,19.569,18.844,24.701c3.403,1.866,7.124,3.222,11.056,3.984
			c2.381,0.462,4.832,0.722,7.344,0.722c15.055,0,28.045-8.703,34.314-21.331c1.463-2.947,2.59-6.089,3.256-9.407
			c0.494-2.454,0.76-4.994,0.76-7.595c0-2.996-0.379-5.896-1.029-8.693c-2.02-8.7-6.99-16.249-13.818-21.555
			c-1.225-0.952-2.51-1.824-3.844-2.623c-2.322-1.389-4.795-2.549-7.402-3.427c-3.258-1.099-6.713-1.753-10.296-1.934
			c-0.646-0.034-1.285-0.098-1.94-0.098c-5.568,0-10.847,1.215-15.621,3.351c-1.625,0.725-3.179,1.57-4.676,2.506
			c-9.706,6.08-16.505,16.355-17.8,28.308c-0.024,0.217-0.027,0.434-0.058,0.651c-0.095,1.031-0.147,2.075-0.159,3.127
			c0,0.128-0.019,0.254-0.019,0.386c0,1.239,0.071,2.46,0.187,3.669C248.44,231.655,248.761,233.403,249.171,235.116z"/>
	</g>
</g>
<g>
</g>
<g>
</g>
<g>
</g>
<g>
</g>
<g>
</g>
<g>
</g>
<g>
</g>
<g>
</g>
<g>
</g>
<g>
</g>
<g>
</g>
<g>
</g>
<g>
</g>
<g>
</g>
<g>
</g>
</svg>
